<?xml version="1.0" standalone="no"?>
<!DOCTYPE svg PUBLIC "-//W3C//DTD SVG 20010904//EN"
 "http://www.w3.org/TR/2001/REC-SVG-20010904/DTD/svg10.dtd">
<svg version="1.0" xmlns="http://www.w3.org/2000/svg"
 width="600pt" height="320pt" viewBox="0 0 600 320"
 preserveAspectRatio="xMidYMid meet">
<g transform="translate(0.000000,600.000000) scale(0.100000,-0.100000)"
fill="#14532d" stroke="none">
<path d="M2924 4577 c-21 -18 -46 -39 -54 -47 -9 -8 -33 -30 -53 -48 l-38 -32
11 -63 c6 -34 13 -73 15 -86 5 -27 15 -41 15 -20 0 12 2 11 11 -1 11 -16 7 62
-6 125 -6 28 -2 35 54 80 63 52 85 82 54 71 -15 -5 -14 -3 2 9 24 19 63 12 81
-14 7 -9 31 -23 54 -31 22 -7 43 -16 45 -20 2 -3 -12 -18 -30 -33 l-34 -27
-22 50 c-12 28 -24 48 -27 45 -3 -3 -16 5 -29 17 -21 20 -20 14 12 -57 l37
-80 -24 -18 c-13 -11 -41 -34 -63 -53 -22 -19 -43 -34 -47 -34 -5 0 -8 -5 -8
-11 0 -5 5 -7 12 -3 7 4 8 3 4 -4 -4 -6 -13 -9 -21 -5 -8 3 -15 1 -15 -5 0
-17 31 -23 49 -9 67 48 156 139 109 111 -9 -5 -9 -3 1 9 7 9 11 26 8 38 -3 13
-1 19 6 16 7 -2 12 -10 12 -18 0 -8 4 -20 8 -26 5 -8 4 -13 -2 -13 -17 0 -13
-16 25 -95 39 -81 44 -87 61 -77 8 5 0 35 -28 96 l-39 89 36 34 c20 18 38 33
39 33 2 0 19 -34 39 -76 40 -84 41 -71 -10 -142 -14 -18 -14 -25 -5 -35 10 -9
19 -5 40 21 59 69 59 70 6 180 -44 93 -50 100 -93 119 -26 11 -72 32 -103 46
l-56 26 -39 -32z m136 -27 c8 -5 11 -10 5 -10 -5 0 -17 5 -25 10 -8 5 -10 10
-5 10 6 0 17 -5 25 -10z m100 -59 c7 -14 5 -17 -12 -16 -13 1 -22 10 -25 23
-3 25 22 20 37 -7z m-50 -24 c0 -2 -15 -16 -32 -33 l-33 -29 29 33 c28 30 36
37 36 29z m120 -122 c0 -5 -5 -3 -10 5 -5 8 -10 20 -10 25 0 6 5 3 10 -5 5 -8
10 -19 10 -25z m15 -24 c3 -5 2 -12 -3 -15 -5 -3 -9 1 -9 9 0 17 3 19 12 6z
m-35 -61 c-6 -11 -13 -20 -16 -20 -2 0 0 9 6 20 6 11 13 20 16 20 2 0 0 -9 -6
-20z"/>
<path d="M2644 4164 c-117 -181 -113 -163 -74 -288 l34 -107 -22 -15 c-12 -8
-20 -19 -17 -24 3 -5 0 -12 -6 -16 -8 -4 -9 -3 -5 4 12 20 -2 14 -54 -24 -28
-20 -48 -40 -45 -44 3 -5 0 -12 -6 -16 -8 -4 -9 -3 -5 4 4 7 3 12 -2 12 -12 0
-43 -35 -37 -42 3 -3 -9 -20 -27 -39 -18 -18 -32 -35 -31 -39 1 -3 -7 -11 -18
-18 -15 -10 -19 -10 -19 2 0 8 20 31 45 52 25 20 43 39 41 42 -5 5 -58 -30
-92 -60 l-22 -20 66 -128 c36 -71 70 -126 76 -123 5 3 6 1 2 -5 -10 -17 44
-112 63 -112 13 0 13 2 2 9 -8 5 -9 10 -2 12 6 2 -24 72 -70 163 -44 87 -78
161 -75 163 3 3 73 22 157 43 84 20 155 42 157 49 2 6 10 11 17 11 7 0 16 7
19 16 5 14 8 14 21 0 19 -18 19 -30 1 -23 -8 3 -17 -1 -20 -9 -3 -8 -11 -14
-19 -14 -16 0 -174 -386 -163 -397 18 -19 44 26 112 197 41 101 74 190 74 197
0 19 8 17 184 -38 88 -28 233 -73 321 -101 88 -27 171 -53 185 -58 90 -32 200
-59 214 -54 29 11 17 23 -46 43 -220 68 -815 253 -825 256 -8 3 -6 16 8 45 24
48 22 61 -7 50 -12 -5 -26 -25 -34 -49 -12 -38 -16 -41 -69 -52 -128 -26 -207
-49 -233 -69 -16 -12 -34 -20 -39 -18 -6 2 8 17 31 33 127 94 195 149 192 157
-1 5 2 7 8 3 6 -4 18 -1 26 6 15 13 56 12 527 -11 201 -10 220 -13 308 -43
l94 -32 42 -145 c23 -80 43 -154 43 -165 1 -19 2 -19 9 -1 5 14 10 16 15 8 10
-17 1 -28 -34 -41 -18 -6 -28 -6 -25 -1 9 14 3 13 -60 -11 l-55 -20 -62 24
c-35 14 -83 32 -108 41 l-46 17 -324 -81 c-422 -105 -402 -99 -395 -110 13
-20 84 -8 378 65 166 42 309 78 317 80 11 4 26 -16 53 -67 20 -40 59 -114 86
-165 l50 -92 -67 -21 c-37 -12 -155 -50 -264 -86 l-196 -64 -294 116 c-161 64
-305 117 -319 118 -17 1 -25 6 -22 14 3 6 0 12 -6 12 -6 0 -11 -4 -11 -10 0
-5 -9 -10 -20 -10 -22 0 -27 15 -8 26 7 4 8 3 4 -4 -4 -7 -2 -12 3 -12 6 0 11
5 11 11 0 6 11 8 28 4 18 -3 70 4 134 20 l105 27 159 -25 c325 -52 336 -53
390 -32 191 71 254 98 254 106 0 6 -4 7 -10 4 -6 -3 -7 1 -4 10 5 13 -2 12
-47 -6 -30 -12 -88 -34 -129 -49 -41 -15 -87 -33 -101 -38 -15 -6 -29 -9 -31
-7 -4 4 -349 55 -369 54 -9 0 -7 -4 6 -10 14 -6 6 -7 -25 -2 -25 3 -55 6 -67
5 -13 -1 -23 4 -23 11 0 8 -4 7 -10 -3 -8 -13 -11 -13 -19 -1 -7 11 -34 7
-152 -21 l-143 -35 -32 -89 c-134 -369 -175 -489 -172 -503 3 -15 84 -16 913
-19 501 -1 960 0 1021 3 l110 7 -76 316 -77 316 -159 63 c-88 35 -164 63 -170
63 -5 0 -19 6 -30 14 -18 14 -17 15 16 11 32 -4 150 30 150 44 0 3 -12 47 -26
96 -14 50 -36 130 -50 180 -14 49 -26 90 -27 90 -1 1 -41 14 -89 30 -72 23
-90 26 -103 15 -8 -7 -15 -10 -15 -7 0 2 22 68 50 146 27 77 46 141 42 141 -4
0 -33 36 -66 79 -32 44 -68 82 -80 85 -11 2 -106 21 -211 40 -224 42 -343 66
-367 72 -14 4 -36 -22 -94 -112z m412 11 c72 -14 150 -23 172 -21 26 2 43 -1
46 -9 3 -8 -13 -12 -52 -13 -66 -1 -594 -107 -623 -125 -26 -16 -24 -27 5 -27
13 0 144 25 292 55 148 31 270 52 272 48 31 -77 150 -318 160 -321 19 -6 15
39 -8 85 -11 23 -38 83 -61 135 -22 51 -45 98 -50 104 -6 7 8 14 42 22 28 7
54 12 59 12 7 0 81 -91 103 -127 4 -7 -8 -56 -28 -114 -39 -112 -39 -113 -25
-104 15 9 12 -8 -5 -31 -10 -13 -17 -15 -22 -8 -9 12 -352 35 -574 37 -75 1
-132 5 -127 8 12 7 -49 199 -64 199 -7 0 -6 5 2 15 7 8 9 15 4 16 -5 0 0 4 11
9 12 4 50 55 85 112 l64 104 96 -18 c52 -11 154 -30 226 -43z m144 -65 c-18
-12 -30 -13 -30 -2 0 4 10 9 22 9 18 2 20 0 8 -7z m-665 -420 c-3 -5 -12 -10
-18 -10 -7 0 -6 4 3 10 19 12 23 12 15 0z m1029 -36 c5 -14 4 -15 -9 -4 -17
14 -19 20 -6 20 5 0 12 -7 15 -16z m23 -76 c-3 -8 -6 -5 -6 6 -1 11 2 17 5 13
3 -3 4 -12 1 -19z m-1243 -114 c3 -8 2 -12 -4 -9 -6 3 -10 10 -10 16 0 14 7
11 14 -7z m873 -10 c-3 -3 -12 -4 -19 -1 -8 3 -5 6 6 6 11 1 17 -2 13 -5z
m-837 -58 c0 -12 -5 -7 -19 24 -11 24 -11 24 3 6 9 -11 16 -24 16 -30z m940
-92 c0 -3 -5 -2 -12 2 -6 4 -8 3 -4 -4 3 -5 38 -22 76 -37 63 -24 83 -45 44
-45 -9 0 -12 5 -8 12 5 8 2 9 -10 5 -10 -4 -25 -7 -33 -7 -12 0 -13 -3 -4 -13
6 -8 7 -17 3 -22 -9 -10 22 -2 68 18 34 15 38 14 170 -40 74 -30 153 -56 175
-58 62 -4 74 -12 69 -47 -2 -17 25 -146 61 -289 36 -142 65 -261 65 -264 0 -3
-58 -5 -129 -5 l-130 0 -60 117 c-34 64 -61 121 -61 126 0 9 71 100 94 122 15
13 141 167 149 181 4 7 -2 9 -19 6 -31 -6 -139 -126 -128 -143 4 -7 3 -9 -3
-6 -11 7 -46 -28 -92 -92 -17 -24 -31 -38 -31 -30 0 8 -20 48 -43 90 l-44 75
159 54 c119 40 158 56 154 67 -3 8 -1 11 4 8 6 -3 10 -1 10 4 0 16 0 16 -170
-39 -85 -28 -160 -50 -165 -50 -6 0 -44 62 -84 139 -46 86 -84 144 -100 154
-14 9 -20 17 -13 17 7 0 10 5 6 11 -4 8 0 8 15 0 11 -7 21 -14 21 -17z m195
-72 c-3 -3 -11 0 -18 7 -9 10 -8 11 6 5 10 -3 15 -9 12 -12z m-1041 -28 c3 -8
2 -12 -4 -9 -6 3 -10 10 -10 16 0 14 7 11 14 -7z m653 -100 c-3 -3 -12 -4 -19
-1 -8 3 -5 6 6 6 11 1 17 -2 13 -5z m-586 -195 c151 -60 281 -109 288 -109 7
0 9 5 5 11 -4 7 1 7 15 -1 23 -12 24 -31 3 -38 -8 -2 -10 2 -6 13 6 14 4 15
-12 6 -10 -6 -174 -60 -364 -121 -410 -132 -430 -139 -430 -151 0 -6 5 -7 11
-3 6 3 15 0 20 -7 7 -11 9 -10 9 4 0 9 4 17 9 17 5 0 18 3 28 6 15 5 16 4 3
-6 -12 -9 -9 -10 15 -5 31 6 353 108 615 194 l145 48 81 -54 c56 -37 86 -52
100 -47 14 4 15 3 6 -4 -10 -7 13 -27 92 -77 58 -37 106 -72 106 -77 0 -5 5
-6 10 -3 6 4 8 11 4 16 -3 6 3 5 15 -3 12 -7 21 -17 21 -22 0 -6 -5 -5 -12 2
-8 8 -15 8 -24 1 -8 -7 -14 -7 -19 1 -4 7 -194 10 -593 10 -398 0 -582 -4
-572 -10 12 -8 9 -10 -12 -7 -15 1 -30 6 -34 10 -4 4 -12 3 -18 -2 -18 -14
-47 1 -36 19 9 13 10 13 10 0 0 -8 9 8 19 35 18 47 158 446 166 472 5 15 -27
26 336 -118z m925 52 c-17 -19 -16 -23 33 -114 45 -83 49 -96 36 -107 -8 -7
-54 -59 -101 -116 -52 -62 -91 -101 -98 -97 -6 4 -90 58 -186 121 -185 121
-209 135 -195 111 5 -8 5 -11 -1 -6 -5 5 -10 13 -10 18 -3 22 -5 23 -13 10 -8
-12 -12 -12 -25 2 -15 15 -13 16 22 11 29 -3 95 14 273 71 129 42 241 83 249
92 13 14 13 15 -2 10 -26 -9 -22 2 5 12 29 11 34 5 13 -18z m107 -204 c-3 -4
1 -16 8 -25 11 -14 11 -15 -1 -5 -11 10 -18 9 -34 -5 -21 -17 -21 -17 -3 5 13
15 17 29 12 44 -6 19 -5 20 8 8 8 -8 13 -18 10 -22z m58 -160 c17 -34 38 -69
46 -79 11 -12 11 -18 2 -24 -8 -4 -10 -3 -5 4 5 9 -30 12 -133 12 -81 0 -142
-4 -146 -10 -7 -11 -41 -8 -52 5 -5 4 -3 5 3 2 7 -4 15 1 18 10 5 12 10 13 18
5 7 -7 34 18 96 94 l85 104 19 -30 c10 -17 32 -58 49 -93z m369 -87 c0 -11 -4
-20 -9 -20 -5 0 -7 9 -4 20 3 11 7 20 9 20 2 0 4 -9 4 -20z"/>
<path d="M2779 3902 c-27 -18 -107 -79 -124 -95 -6 -6 -1 -7 14 -2 16 5 21 4
17 -4 -12 -18 5 -12 41 15 18 14 38 22 45 18 7 -4 8 -3 4 4 -4 7 -14 12 -23
12 -11 0 -8 6 10 20 28 22 47 26 47 9 0 -5 -4 -8 -9 -4 -5 3 -13 0 -17 -6 -4
-8 -3 -9 4 -5 21 13 13 -12 -13 -40 -14 -15 -25 -28 -25 -28 0 -1 9 -2 20 -3
25 -2 54 60 45 94 -3 13 -1 23 5 23 5 0 10 -6 10 -14 0 -19 295 -118 359 -120
25 -2 60 -6 76 -10 21 -5 25 -4 15 2 -22 14 -442 152 -460 151 -8 0 -27 -8
-41 -17z m-54 -72 c-3 -5 -12 -10 -18 -10 -7 0 -6 4 3 10 19 12 23 12 15 0z"/>
</g>
</svg>