<?xml version="1.0" encoding="UTF-8"?> <svg xmlns="http://www.w3.org/2000/svg" width="1204" height="243" viewBox="0 0 1204 243" fill="none"><path d="M1182.19 242.045C1176.1 242.045 1171.17 240.063 1167.4 236.1C1163.72 232.04 1161.89 227.207 1161.89 221.6C1161.89 215.607 1163.72 210.677 1167.4 206.81C1171.17 202.847 1176.05 200.865 1182.04 200.865C1188.42 200.865 1193.5 202.847 1197.27 206.81C1201.13 210.677 1203.07 215.607 1203.07 221.6C1203.07 227.207 1201.13 232.04 1197.27 236.1C1193.5 240.063 1188.47 242.045 1182.19 242.045Z" fill="#A2B1C2"></path><path d="M1064.77 239V232.62L1086.81 228.125V26.575L1065.06 18.89V14.395L1113.35 0.764984H1116.39V228.125L1138.14 232.62V239H1064.77Z" fill="#A2B1C2"></path><path d="M979.492 242.045C965.475 242.045 953.15 238.855 942.517 232.475C931.98 225.998 923.764 217.008 917.867 205.505C912.067 193.905 909.167 180.517 909.167 165.34C909.167 149.197 912.405 135.035 918.882 122.855C925.455 110.675 934.59 101.153 946.287 94.29C958.08 87.4267 971.71 83.995 987.177 83.995C1006.32 83.995 1020.96 89.5533 1031.11 100.67C1041.36 111.787 1046.68 128.075 1047.06 149.535L1045.03 151.275H932.657V142.865L1013.86 139.965C1014.53 137.452 1014.87 133.633 1014.87 128.51C1014.87 105.31 1004.67 93.71 984.277 93.71C970.26 93.71 959.434 99.22 951.797 110.24C944.257 121.163 940.487 136.678 940.487 156.785C940.487 198.835 956.824 219.86 989.497 219.86C1010.76 219.86 1027.05 212.127 1038.36 196.66L1043.73 199.995C1038.7 213.335 1030.53 223.678 1019.22 231.025C1008.01 238.372 994.765 242.045 979.492 242.045Z" fill="#A2B1C2"></path><path d="M792.769 242.045C781.362 242.045 771.115 238.71 762.029 232.04C752.942 225.37 745.74 216.283 740.424 204.78C735.204 193.18 732.594 180.082 732.594 165.485C732.594 149.438 735.784 135.325 742.164 123.145C748.544 110.868 757.437 101.298 768.844 94.435C780.25 87.475 793.445 83.995 808.429 83.995C819.062 83.995 829.502 85.59 839.749 88.78V27.155L818.289 18.89V14.83L865.704 0.764984H869.039V215.945L888.904 220.44V223.92L844.099 242.045H841.779V218.12L840.474 217.685C834.48 225.708 827.375 231.798 819.159 235.955C811.039 240.015 802.242 242.045 792.769 242.045ZM805.529 222.905C812.682 222.905 819.304 221.407 825.394 218.41C831.58 215.413 836.365 211.353 839.749 206.23V125.61C839.749 115.267 837.042 107.34 831.629 101.83C826.312 96.32 818.627 93.565 808.574 93.565C795.62 93.565 785.132 99.7033 777.109 111.98C769.182 124.257 765.219 140.545 765.219 160.845C765.219 179.985 768.795 195.113 775.949 206.23C783.102 217.347 792.962 222.905 805.529 222.905Z" fill="#A2B1C2"></path><path d="M630.432 242.045C615.545 242.045 602.35 238.613 590.847 231.75C579.343 224.79 570.305 215.365 563.732 203.475C557.255 191.488 554.017 178.003 554.017 163.02C554.017 147.94 557.255 134.455 563.732 122.565C570.305 110.675 579.343 101.298 590.847 94.435C602.35 87.475 615.545 83.995 630.432 83.995C645.318 83.995 658.465 87.475 669.872 94.435C681.375 101.298 690.413 110.675 696.987 122.565C703.56 134.455 706.847 147.94 706.847 163.02C706.847 178.003 703.56 191.488 696.987 203.475C690.413 215.365 681.375 224.79 669.872 231.75C658.465 238.613 645.318 242.045 630.432 242.045ZM630.142 228.705C637.198 228.705 643.433 227.158 648.847 224.065C654.26 220.875 658.803 216.38 662.477 210.58C666.247 204.683 669.098 197.723 671.032 189.7C672.965 181.58 673.932 172.59 673.932 162.73C673.932 152.967 672.965 144.073 671.032 136.05C669.195 128.027 666.44 121.115 662.767 115.315C659.093 109.515 654.55 105.068 649.137 101.975C643.723 98.785 637.488 97.19 630.432 97.19C623.375 97.19 617.14 98.785 611.727 101.975C606.313 105.068 601.77 109.515 598.097 115.315C594.423 121.115 591.62 128.075 589.687 136.195C587.85 144.218 586.932 153.16 586.932 163.02C586.932 172.88 587.85 181.822 589.687 189.845C591.62 197.868 594.423 204.78 598.097 210.58C601.77 216.38 606.265 220.875 611.582 224.065C616.995 227.158 623.182 228.705 630.142 228.705Z" fill="#A2B1C2"></path><path d="M280.499 239V232.62L302.104 228.125V110.24L280.789 102.265V98.06L326.609 83.995H330.379V109.08L331.829 110.53V228.125L353.144 232.62V239H280.499ZM372.139 239V232.62L393.599 228.415V139.82C393.599 126.093 391.424 116.233 387.074 110.24C382.821 104.15 375.957 101.105 366.484 101.105C359.137 101.105 352.129 102.942 345.459 106.615C338.886 110.192 333.134 115.363 328.204 122.13V109.95C336.324 101.733 345.266 95.3533 355.029 90.81C364.889 86.2667 374.556 83.995 384.029 83.995C397.272 83.995 407.084 87.475 413.464 94.435C419.844 101.298 423.034 112.028 423.034 126.625V228.415L444.494 232.62V239H372.139ZM463.489 239V232.62L484.804 228.415V138.95C484.804 125.223 482.726 115.508 478.569 109.805C474.509 104.005 467.597 101.105 457.834 101.105C450.004 101.105 442.851 102.942 436.374 106.615C429.994 110.192 424.387 115.363 419.554 122.13V109.95C426.997 101.347 435.746 94.87 445.799 90.52C455.852 86.17 466.002 83.995 476.249 83.995C489.202 83.995 498.676 87.5233 504.669 94.58C510.662 101.637 513.852 112.753 514.239 127.93V228.415L535.699 232.62V239H463.489Z" fill="#A2B1C2"></path><path d="M192.754 242.045C178.737 242.045 166.412 238.855 155.779 232.475C145.242 225.998 137.025 217.008 131.129 205.505C125.329 193.905 122.429 180.517 122.429 165.34C122.429 149.197 125.667 135.035 132.144 122.855C138.717 110.675 147.852 101.153 159.549 94.29C171.342 87.4267 184.972 83.995 200.439 83.995C219.579 83.995 234.224 89.5533 244.374 100.67C254.62 111.787 259.937 128.075 260.324 149.535L258.294 151.275H145.919V142.865L227.119 139.965C227.795 137.452 228.134 133.633 228.134 128.51C228.134 105.31 217.935 93.71 197.539 93.71C183.522 93.71 172.695 99.22 165.059 110.24C157.519 121.163 153.749 136.678 153.749 156.785C153.749 198.835 170.085 219.86 202.759 219.86C224.025 219.86 240.314 212.127 251.624 196.66L256.989 199.995C251.962 213.335 243.794 223.678 232.484 231.025C221.27 238.372 208.027 242.045 192.754 242.045Z" fill="#A2B1C2"></path><path d="M-0.00976562 239V232.62L21.7402 228.125V109.95L0.570233 101.975V97.77L46.9702 83.85H50.1602V115.17L51.3202 116.62V228.125L81.1902 232.62V239H-0.00976562ZM49.1452 128.51L48.5652 116.62C55.7186 106.083 62.8236 97.9633 69.8802 92.26C77.0336 86.5567 83.7036 83.705 89.8902 83.705C95.2069 83.705 99.7019 85.5417 103.375 89.215C107.049 92.7917 108.885 97.1417 108.885 102.265C108.885 107.002 107.29 111.013 104.1 114.3C100.91 117.49 96.9469 119.085 92.2102 119.085C87.3769 119.085 83.6069 117.297 80.9002 113.72C78.9669 111.497 77.3236 109.998 75.9702 109.225C74.6169 108.355 73.0702 107.92 71.3302 107.92C68.5269 107.92 64.9986 109.805 60.7452 113.575C56.5886 117.248 52.7219 122.227 49.1452 128.51Z" fill="#A2B1C2"></path></svg> 