<svg width="160" height="50" viewBox="0 0 160 50" fill="none" xmlns="http://www.w3.org/2000/svg">
<g id="Layer_1" clip-path="url(#clip0_1201_25)">
<path id="Vector" d="M155.848 23.1237C105.3 23.1228 54.7519 23.1228 4.20391 23.1237C2.00468 23.1237 0.230254 24.8901 0.227854 27.0932C0.221454 33.184 0.223054 39.2739 0.227854 45.3647C0.229454 47.3643 1.65988 49.019 3.62311 49.3238C3.69671 49.3351 3.76631 49.3737 3.83751 49.3994H156.245C156.485 49.3375 156.728 49.2828 156.966 49.2128C158.67 48.7149 159.842 47.1415 159.842 45.3502C159.842 39.2868 159.843 33.2226 159.842 27.1592C159.842 24.8981 158.089 23.1245 155.848 23.1237ZM21.2274 41.7514H17.4433V34.5699C17.4177 34.5635 17.3913 34.5571 17.3657 34.5506C17.2857 34.6962 17.2017 34.8402 17.1273 34.9882C16.0425 37.1472 14.9545 39.3053 13.8809 41.4691C13.7633 41.7064 13.6321 41.7965 13.3665 41.7884C12.7008 41.7675 12.0336 41.7683 11.368 41.7884C11.092 41.7965 10.948 41.708 10.82 41.457C9.6968 39.2578 8.55838 37.0667 7.42396 34.8732C7.39356 34.8153 7.36076 34.759 7.32956 34.701C7.30236 34.7027 7.27516 34.7051 7.24716 34.7067V41.7482H3.3815V30.0509C3.5135 30.0437 3.64071 30.03 3.76871 30.03C5.50073 30.0284 7.23276 30.0373 8.96479 30.0212C9.26479 30.0188 9.40639 30.1185 9.53119 30.3856C10.36 32.164 11.2064 33.9337 12.048 35.7065C12.1256 35.8706 12.208 36.0323 12.3256 36.2712C12.784 35.3236 13.2096 34.4533 13.6273 33.5789C14.1449 32.4946 14.6497 31.4047 15.1777 30.326C15.2393 30.1998 15.4081 30.0429 15.5281 30.0421C17.3929 30.026 19.2585 30.0332 21.1242 30.0357C21.149 30.0357 21.1746 30.0509 21.2282 30.0678V41.7498L21.2274 41.7514ZM35.5412 41.7562H22.5834V30.0534H35.534V33.1566H26.6971V38.6409H35.5404V41.757L35.5412 41.7562ZM33.5412 34.553V37.3169H27.4603V34.553H33.5412ZM50.791 41.7627C50.6406 41.7699 50.511 41.7812 50.3814 41.7812C47.1038 41.782 43.8261 41.7997 40.5493 41.7667C39.91 41.7603 39.2444 41.6348 38.6412 41.4208C37.5164 41.0234 36.946 40.1016 36.9116 38.953C36.8508 36.9219 36.814 34.8828 36.9244 32.8566C37.0124 31.2446 37.974 30.3687 39.5684 30.1257C39.9093 30.0735 40.2565 30.0357 40.6013 30.0349C43.8917 30.0284 47.183 30.0308 50.4734 30.0316C50.5654 30.0316 50.6566 30.0397 50.7814 30.0453V33.3231H50.2942C47.363 33.3231 44.4325 33.3231 41.5013 33.3231C41.3549 33.3231 41.2077 33.3231 41.0621 33.3328C40.5837 33.3658 40.4733 33.4647 40.4709 33.9393C40.4645 35.2907 40.4757 36.6412 40.4709 37.9926C40.4693 38.3071 40.6141 38.4663 40.9109 38.5009C41.0957 38.5226 41.2813 38.5411 41.4669 38.5419C44.4109 38.5444 47.3558 38.5436 50.2998 38.5436H50.791V41.7635V41.7627ZM67.2905 41.7603H63.2504V37.6402H56.2463V41.7482H52.1646V30.0509H56.2031V34.0262H63.2224V30.0574H67.2905V41.7603ZM82.1299 41.7651C81.6339 41.1151 81.3939 40.6325 81.0907 40.203C80.9707 39.956 80.8179 39.8643 80.5371 39.8676C79.0986 39.8828 77.6594 39.8748 76.221 39.8748H75.7026C76.0018 39.3463 76.993 37.415 77.393 36.9324C77.953 36.9324 79.1658 36.9243 79.3226 36.9171C78.7394 35.8513 78.1778 34.8249 77.5818 33.735C77.0098 34.7976 76.473 35.791 75.9394 36.786C75.1058 38.3384 74.2778 39.8933 73.4354 41.4401C73.365 41.5696 73.2018 41.7337 73.0801 41.7353C71.6425 41.7562 70.2049 41.7482 68.7169 41.7482C68.7849 41.609 68.8409 41.4811 68.9081 41.3597C70.9441 37.6813 72.9826 34.0037 75.0122 30.322C75.129 30.1097 75.2498 30.0147 75.501 30.0172C76.913 30.0292 78.325 30.0268 79.7371 30.0196C79.9563 30.0188 80.0939 30.0678 80.2099 30.281C82.2491 34.0342 84.2987 37.781 86.3452 41.5302C86.3764 41.5865 86.4012 41.6468 86.462 41.7747C84.9771 41.7747 83.5523 41.7796 82.1291 41.7651H82.1299ZM104.26 41.7554H103.869C102.083 41.7554 100.297 41.7506 98.5117 41.7611C98.2605 41.7627 98.0981 41.6887 97.9381 41.4916C96.0333 39.1501 94.1189 36.8166 92.2068 34.4815C92.0572 34.2989 91.906 34.1187 91.6828 33.85V41.7225H87.8084V30.03H89.0308C90.5364 30.03 92.042 30.0389 93.5477 30.0228C93.8477 30.0196 94.0317 30.1177 94.2173 30.3461C96.1309 32.6973 98.0557 35.0397 99.9781 37.3836C100.094 37.5252 100.213 37.6636 100.397 37.8807V30.0646H104.26V41.7554ZM109.665 41.7667H105.65V30.0526H109.665V41.7667ZM124.943 33.3223H124.455C121.511 33.3223 118.566 33.3223 115.622 33.3223C115.436 33.3223 115.249 33.3223 115.064 33.3416C114.753 33.373 114.594 33.5379 114.595 33.8709C114.602 35.1957 114.591 36.5197 114.602 37.8445C114.607 38.3859 114.718 38.4864 115.257 38.5347C115.389 38.5468 115.523 38.5419 115.656 38.5419C118.587 38.5419 121.518 38.5419 124.449 38.5419H124.943V41.7603C124.798 41.7675 124.668 41.7796 124.539 41.7796C121.249 41.7804 117.958 41.7844 114.667 41.7747C114.27 41.7739 113.866 41.7345 113.479 41.6501C111.876 41.3002 111.033 40.281 111.007 38.6143C110.98 36.8085 110.976 35.0011 111.007 33.1953C111.042 31.2503 112.255 30.0871 114.352 30.0526C117.135 30.0059 119.921 30.0324 122.705 30.0284C123.437 30.0276 124.169 30.0284 124.944 30.0284V33.3207L124.943 33.3223ZM139.742 41.7715C139.246 41.1216 139.006 40.639 138.703 40.2094C138.583 39.9625 138.43 39.8708 138.149 39.874C136.711 39.8893 135.271 39.8812 133.833 39.8812C133.689 39.8812 133.546 39.8812 133.315 39.8812C133.614 39.3528 134.605 37.4214 135.005 36.9388C135.565 36.9388 136.778 36.9308 136.935 36.9235C136.352 35.8577 135.79 34.8314 135.194 33.7414C134.622 34.804 134.085 35.7974 133.551 36.7924C132.718 38.3449 131.89 39.8997 131.047 41.4466C130.977 41.5761 130.814 41.7401 130.692 41.7418C129.255 41.7627 127.817 41.7546 126.329 41.7546C126.397 41.6155 126.453 41.4876 126.52 41.3661C128.556 37.6877 130.595 34.0101 132.624 30.3285C132.741 30.1161 132.862 30.0212 133.113 30.0236C134.525 30.0357 135.937 30.0332 137.349 30.026C137.568 30.0252 137.706 30.0743 137.822 30.2874C139.861 34.0407 141.911 37.7874 143.957 41.5366C143.988 41.5929 144.013 41.6533 144.074 41.7812C142.589 41.7812 141.164 41.786 139.741 41.7715H139.742ZM157.113 41.7554H145.457V30.0517H149.472V38.5355H157.113V41.7554Z" fill="black"/>
<path id="Vector_2" d="M3.80726 12.2057C4.84407 12.4172 5.91929 12.4888 6.97931 12.5218C9.46814 12.5982 11.9586 12.599 14.4482 12.6609C15.309 12.6827 16.1722 12.7575 17.0243 12.8789C17.5019 12.9473 17.7195 13.2787 17.7507 13.7147C17.7875 14.2311 17.6123 14.618 17.1435 14.7716C16.6707 14.9269 16.1626 15.0532 15.6698 15.0548C10.793 15.0749 5.91609 15.0668 1.03922 15.0668C0.871213 15.0668 0.703211 15.0668 0.463207 15.0668C0.508008 15.8463 0.526408 16.5654 0.596009 17.2797C0.725611 18.6133 1.73043 19.8247 3.17605 20.0668C3.66006 20.1481 4.15286 20.2221 4.64167 20.2237C9.13214 20.2358 13.6226 20.2374 18.1131 20.2237C18.7899 20.2221 19.4723 20.173 20.1411 20.0709C22.2059 19.7564 23.674 18.693 24.2084 16.5847C24.6772 14.7362 24.658 12.883 24.1596 11.0337C23.6804 9.25763 22.5179 8.19183 20.7539 7.8926C19.5955 7.69633 18.4019 7.6907 17.2219 7.65611C16.1322 7.62394 15.0402 7.68909 13.9498 7.673C12.0994 7.64566 10.2498 7.59417 8.40013 7.53626C8.08492 7.52661 7.76412 7.45823 7.46011 7.36975C6.97611 7.22818 6.7409 6.9008 6.7297 6.43346C6.7193 5.96049 6.92651 5.58484 7.38571 5.44005C7.78492 5.31377 8.21452 5.22207 8.63133 5.22126C13.5346 5.20678 18.4387 5.21161 23.342 5.21161H23.8476C23.7804 4.66142 23.7164 4.17236 23.6604 3.68249C23.3764 1.19697 21.4091 0.139211 19.6723 0.128754C18.0075 0.118297 16.3418 0.109449 14.677 0.1006C13.2514 0.0925567 11.8258 0.0804911 10.4002 0.0780779C8.48253 0.0748604 6.5633 0.0322284 4.64727 0.0941655C2.34884 0.168168 0.869613 1.42219 0.320005 3.65755C0.180003 4.22544 0.104802 4.80942 0 5.38616V7.55476C0.0288004 7.72448 0.064001 7.8934 0.0848013 8.06393C0.359205 10.3122 1.60082 11.7544 3.80646 12.2049L3.80726 12.2057Z" fill="black"/>
<path id="Vector_3" d="M74.1507 14.7315C76.1484 16.4609 78.1572 18.1775 80.1644 19.8956C80.2388 19.9592 80.3252 20.009 80.466 20.1064V8.03911C80.5772 8.23297 80.6316 8.32064 80.6788 8.41234C82.6469 12.2637 84.6173 16.1142 86.5757 19.9712C86.6989 20.2134 86.8373 20.2898 87.0965 20.2874C88.3621 20.2753 89.6286 20.2697 90.8942 20.2906C91.223 20.2962 91.3846 20.1836 91.5278 19.8924C93.4246 16.0491 95.3351 12.2114 97.2423 8.37293C97.3015 8.25307 97.3671 8.13724 97.4303 8.019C97.4607 8.02946 97.4919 8.03911 97.5223 8.04957V20.252H103.986V0.241481C103.882 0.228611 103.803 0.210111 103.725 0.210111C100.566 0.208502 97.4087 0.21172 94.2502 0.202067C93.9982 0.202067 93.9054 0.317897 93.8118 0.517383C92.6566 2.99808 91.4974 5.47717 90.3334 7.95385C89.8982 8.88049 89.447 9.8007 88.9798 10.7732C88.9046 10.626 88.855 10.5367 88.8118 10.445C87.2765 7.17038 85.7365 3.89737 84.2149 0.616321C84.0685 0.300201 83.8989 0.198849 83.5573 0.200458C80.5188 0.214937 77.4812 0.208502 74.4427 0.208502H73.9547C73.9419 0.360529 73.9259 0.464294 73.9259 0.568058C73.9243 5.13209 73.9227 9.69613 73.9339 14.2602C73.9339 14.4194 74.0291 14.627 74.1491 14.7315H74.1507Z" fill="black"/>
<path id="Vector_4" d="M153.36 0.2423V13.5097C153.202 13.3271 153.099 13.2129 153.002 13.0938C149.614 8.91107 146.225 4.72992 142.846 0.53992C142.649 0.295389 142.452 0.202082 142.143 0.202886C138.984 0.213343 135.827 0.209321 132.668 0.209321H132.194V20.1772C134.261 20.1772 136.298 20.1772 138.335 20.1772C138.452 20.1772 138.57 20.1772 138.764 20.1772V6.82291C138.888 6.97011 138.948 7.03928 139.005 7.11087C142.448 11.3692 145.893 15.626 149.33 19.8892C149.497 20.0959 149.661 20.1836 149.929 20.1828C153.127 20.174 156.325 20.1772 159.523 20.1772H159.898V0.2423H153.359H153.36Z" fill="black"/>
<path id="Vector_5" d="M106.121 18.1904C106.997 19.2151 108.086 19.8361 109.409 20.0863C111.161 20.4177 112.931 20.4297 114.701 20.4378C117.563 20.4499 120.427 20.4659 123.288 20.3992C124.559 20.3694 125.839 20.2158 127.091 19.9873C129.221 19.5988 131.09 17.7986 131.064 15.1675C131.031 11.81 131.069 8.45177 131.049 5.0935C131.041 3.74295 130.51 2.60636 129.503 1.69581C128.344 0.64851 126.943 0.239082 125.434 0.175536C123 0.0725761 114.426 0.0347703 112.578 0.089468C111.438 0.123252 110.281 0.194037 109.171 0.434546C106.692 0.972674 105.123 2.89433 105.114 5.26402C105.102 8.5684 105.104 11.8736 105.115 15.178C105.119 16.2864 105.375 17.3192 106.121 18.1904ZM111.478 6.4183C111.478 6.07323 111.657 5.85283 111.977 5.78687C112.274 5.72574 112.582 5.69919 112.886 5.69758C114.658 5.68954 116.43 5.69356 118.202 5.69356C118.202 5.69758 118.202 5.70241 118.202 5.70643C120.093 5.70643 121.985 5.69678 123.876 5.71126C124.691 5.71769 124.819 5.87455 124.819 6.68455C124.819 9.07999 124.819 11.4746 124.819 13.8701C124.819 14.3535 124.695 14.5264 124.225 14.6061C123.899 14.6616 123.563 14.6873 123.231 14.6881C119.794 14.6937 116.358 14.6929 112.921 14.6881C112.615 14.6881 112.31 14.6551 112.006 14.6238C111.666 14.5884 111.477 14.405 111.477 14.0446C111.478 11.502 111.478 8.96014 111.477 6.4175L111.478 6.4183Z" fill="black"/>
<path id="Vector_6" d="M23.7239 20.0698C23.9263 20.0698 24.0679 20.0714 24.2103 20.0698C26.5007 20.0432 28.7912 20.0094 31.0816 19.9982C31.4032 19.9966 31.576 19.9017 31.7272 19.6137C33.9728 15.3497 36.2305 11.0929 38.4865 6.83455C38.5513 6.71148 38.6313 6.59726 38.7249 6.44523C39.6433 8.13362 40.5289 9.77777 41.4377 11.4098C41.5409 11.5957 41.7489 11.7815 41.9474 11.8458C43.8314 12.462 45.7234 13.0524 47.613 13.6508C48.5578 13.9501 49.5019 14.2493 50.4467 14.5477C50.4427 14.5767 50.4379 14.6064 50.4339 14.6354H43.1034C43.1442 14.7335 43.1602 14.7834 43.185 14.8293C44.0802 16.4999 44.9818 18.1674 45.865 19.8445C45.989 20.0802 46.1554 20.0706 46.3562 20.0706C48.6611 20.069 50.9659 20.0706 53.2715 20.0682C53.3963 20.0682 53.5219 20.0537 53.6883 20.0432C53.6171 19.8912 53.5715 19.7826 53.5163 19.6796C50.0323 13.2165 46.5458 6.75492 43.0674 0.288532C42.9482 0.0721548 42.8178 -0.000239072 42.5722 0.000565304C40.0409 0.0102178 37.5089 0.0110222 34.9776 -0.000239072C34.7232 -0.00104345 34.604 0.093873 34.4904 0.303011C30.9752 6.74929 27.4543 13.1923 23.9351 19.637C23.8679 19.7601 23.8111 19.8904 23.7239 20.0706V20.0698Z" fill="black"/>
<path id="Vector_7" d="M77.8837 20.0535C75.906 18.3208 73.9332 16.5834 71.946 14.8628C71.7964 14.7333 71.5396 14.6746 71.3316 14.6746C68.1331 14.6633 64.9355 14.6665 61.737 14.6665H61.2498V0.244873H54.4033V20.2417H78.0125C77.9901 20.1299 77.9325 20.0961 77.8837 20.0535Z" fill="black"/>
</g>
<defs>
<clipPath id="clip0_1201_25">
<rect width="159.9" height="49.4" fill="white"/>
</clipPath>
</defs>
</svg>
